# xmcd
#
# Track frame offsets: 
#        150
#        19174
#        35643
#        52529
#        71837
#        86070
#        106856
#        123782
#        139541
#        159356
#        179810
#
# Disc length: 2630 seconds
#
# Revision: 6
# Processed by: cddbd v1.5.2PL0 Copyright (c) Steve Scherf et al.
# Submitted via: ExactAudioCopyFreeDBPlugin 1.0
#
DISCID=8b0a440b
DTITLE=Rhiannon Giddens - Tomorrow Is My Turn
DYEAR=2015
DGENRE=Gospel, Rhythm and Blues, Funk - Soul, Blues
TTITLE0=Last Kind Words
TTITLE1=Don't Let It Trouble Your Mind
TTITLE2=Waterboy
TTITLE3=She's Got You
TTITLE4=Up Above My Head
TTITLE5=Tomorrow Is My Turn
TTITLE6=Black Is the Color
TTITLE7=Round About the Mountain
TTITLE8=Shake Sugaree
TTITLE9=O Love Is Teasin'
TTITLE10=Angel City
EXTD=
EXTT0=
EXTT1=
EXTT2=
EXTT3=
EXTT4=
EXTT5=
EXTT6=
EXTT7=
EXTT8=
EXTT9=
EXTT10=
PLAYORDER=
